<svg id="svg" version="1.1" xmlns="http://www.w3.org/2000/svg" xmlns:xlink="http://www.w3.org/1999/xlink" width="400" height="225" viewBox="0, 0, 400,225"><g id="svgg"><path id="path0" d="M127.917 63.879 C 127.516 63.930,126.531 64.120,125.729 64.302 C 124.927 64.484,124.083 64.659,123.854 64.691 C 123.328 64.764,120.342 65.926,119.375 66.434 C 117.952 67.180,117.203 67.607,116.955 67.813 C 116.816 67.927,116.390 68.255,116.008 68.541 C 113.151 70.679,110.862 74.206,109.852 78.021 C 109.263 80.247,109.640 85.859,110.559 88.542 C 112.819 95.139,120.092 100.324,128.542 101.361 C 136.407 102.326,140.553 106.522,137.089 110.012 C 133.555 113.572,123.461 111.775,119.271 106.839 L 118.646 106.103 117.081 107.583 C 110.729 113.589,109.167 115.124,109.167 115.363 C 109.167 116.160,116.176 122.500,117.058 122.500 C 117.167 122.500,117.288 122.581,117.326 122.681 C 117.431 122.953,120.748 124.498,122.344 125.018 L 123.750 125.475 123.750 129.182 C 123.750 131.221,123.841 133.130,123.953 133.424 L 124.156 133.958 128.745 133.958 L 133.333 133.958 133.333 147.396 L 133.333 160.833 137.917 160.833 L 142.500 160.833 142.500 147.400 L 142.500 133.966 147.240 133.910 L 151.979 133.854 152.035 129.531 C 152.088 125.515,152.066 125.208,151.723 125.203 C 151.520 125.200,148.260 125.199,144.479 125.200 L 137.604 125.203 139.167 124.669 C 145.946 122.350,151.416 117.309,152.740 112.160 C 153.981 107.332,153.440 100.994,151.519 97.869 C 151.257 97.441,151.042 97.039,151.042 96.974 C 151.042 96.419,148.476 93.681,146.698 92.341 C 145.219 91.225,139.823 88.893,137.604 88.410 C 137.375 88.360,136.766 88.224,136.250 88.108 C 135.734 87.992,134.609 87.766,133.750 87.606 C 127.171 86.385,124.187 84.074,124.820 80.690 C 125.870 75.067,135.313 74.939,141.166 80.468 L 142.020 81.275 142.520 80.852 C 142.796 80.619,143.818 79.814,144.792 79.062 C 145.766 78.310,146.705 77.581,146.879 77.441 C 147.053 77.302,147.569 76.909,148.025 76.569 C 149.007 75.836,148.905 75.916,150.661 74.505 L 152.051 73.388 150.240 71.538 C 144.346 65.513,136.447 62.804,127.917 63.879 M178.646 63.952 C 176.411 64.264,174.066 64.854,172.188 65.577 C 166.764 67.665,162.904 70.961,160.663 75.417 C 158.550 79.620,158.542 79.693,158.542 94.991 C 158.542 109.735,158.568 110.042,160.128 113.495 C 160.401 114.100,160.625 114.652,160.625 114.722 C 160.625 114.792,161.131 115.610,161.750 116.539 C 163.911 119.785,167.665 122.726,171.563 124.227 C 172.021 124.403,172.771 124.691,173.229 124.867 L 174.063 125.187 171.926 125.198 L 169.789 125.208 169.843 142.969 L 169.896 160.729 181.667 160.729 L 193.438 160.729 193.497 156.667 C 193.529 154.432,193.504 152.394,193.441 152.138 L 193.327 151.672 186.243 151.617 L 179.160 151.563 179.111 138.854 L 179.063 126.146 182.396 126.139 C 184.403 126.134,186.185 126.022,186.875 125.857 C 189.362 125.263,191.065 124.672,193.125 123.687 C 193.755 123.385,196.312 121.832,196.458 121.662 C 196.516 121.595,196.932 121.264,197.383 120.926 C 199.249 119.530,201.818 116.490,203.366 113.846 L 204.102 112.587 202.937 112.046 C 202.295 111.749,201.248 111.269,200.610 110.981 C 199.972 110.692,198.659 110.084,197.693 109.629 C 195.840 108.755,193.756 107.786,191.907 106.939 C 191.295 106.658,190.767 106.458,190.734 106.495 C 190.700 106.532,190.474 106.938,190.231 107.396 C 186.998 113.488,175.882 113.208,174.075 106.990 C 173.615 105.408,173.592 84.597,174.049 83.092 C 175.960 76.795,187.798 76.221,190.928 82.273 C 191.244 82.885,191.540 82.939,192.188 82.504 C 192.302 82.426,192.865 82.193,193.438 81.985 C 194.010 81.776,194.854 81.438,195.313 81.233 C 196.552 80.679,200.906 78.913,201.146 78.868 C 201.260 78.846,201.823 78.609,202.396 78.340 C 202.969 78.072,203.544 77.851,203.674 77.850 C 203.869 77.848,202.646 75.144,202.291 74.792 C 202.233 74.734,201.821 74.125,201.374 73.438 C 198.984 69.763,193.604 65.721,189.896 64.814 C 189.438 64.702,188.500 64.462,187.813 64.280 C 186.349 63.893,180.557 63.686,178.646 63.952 M228.958 63.951 C 226.740 64.238,223.334 65.112,221.563 65.851 C 221.219 65.994,220.891 66.121,220.833 66.133 C 219.597 66.401,215.506 69.124,213.805 70.810 C 211.220 73.374,210.125 75.244,208.784 79.387 C 207.872 82.202,207.860 107.782,208.769 110.572 C 210.165 114.855,211.330 116.767,214.200 119.479 C 215.957 121.139,216.479 121.536,217.987 122.355 C 218.579 122.676,219.250 123.059,219.479 123.206 C 219.903 123.478,220.094 123.553,223.021 124.602 L 224.688 125.199 217.292 125.199 C 213.224 125.199,209.730 125.201,209.527 125.203 C 209.184 125.208,209.162 125.515,209.215 129.531 L 209.271 133.854 213.905 133.910 L 218.539 133.966 218.592 147.348 L 218.646 160.729 223.229 160.729 L 227.813 160.729 227.866 147.344 L 227.920 133.958 232.494 133.958 C 238.045 133.958,237.541 134.400,237.457 129.603 L 237.396 126.088 238.958 125.794 L 240.521 125.500 240.574 143.171 L 240.627 160.841 245.157 160.785 L 249.688 160.729 249.741 142.969 L 249.794 125.208 245.887 125.195 L 241.979 125.181 243.125 124.775 C 243.755 124.552,244.458 124.309,244.688 124.234 C 251.006 122.179,256.451 116.095,257.801 109.583 C 258.277 107.285,258.282 82.755,257.807 80.417 C 256.237 72.699,249.852 66.747,240.938 64.692 C 240.135 64.507,239.057 64.257,238.542 64.135 C 237.335 63.850,230.721 63.723,228.958 63.951 M32.917 77.465 L 32.917 90.347 33.762 91.026 C 34.227 91.400,35.336 92.377,36.225 93.197 C 38.667 95.447,41.495 98.008,41.667 98.125 C 41.876 98.267,45.460 101.537,46.759 102.771 L 47.813 103.772 47.866 91.342 L 47.920 78.912 53.179 79.004 C 63.548 79.186,63.729 79.461,63.718 95.104 C 63.710 106.930,63.551 107.845,61.218 109.501 C 59.311 110.856,59.576 110.833,45.588 110.833 L 32.917 110.833 32.917 118.125 L 32.917 125.417 44.427 125.411 C 58.822 125.403,63.107 125.074,65.938 123.759 C 66.167 123.653,67.086 123.236,67.981 122.833 C 73.940 120.146,77.560 115.473,78.647 109.063 C 78.985 107.072,79.060 83.352,78.735 81.458 C 78.344 79.186,76.807 74.829,76.235 74.375 C 76.163 74.318,75.868 73.896,75.579 73.438 C 74.298 71.402,70.659 68.416,67.917 67.149 C 62.983 64.870,60.460 64.595,44.427 64.588 L 32.917 64.583 32.917 77.465 M87.083 95.000 L 87.083 125.417 89.796 125.417 L 92.509 125.417 92.499 137.865 C 92.485 153.791,92.498 153.867,95.941 157.370 C 102.637 164.187,116.260 162.237,119.961 153.932 C 121.040 151.511,121.065 151.113,120.999 137.604 L 120.938 125.104 116.473 125.048 C 114.018 125.017,111.934 125.066,111.842 125.158 C 111.751 125.249,111.665 130.759,111.650 137.402 C 111.632 146.058,111.556 149.674,111.380 150.168 C 110.128 153.696,103.415 153.829,102.097 150.351 C 101.799 149.564,101.786 125.417,102.083 125.417 C 102.221 125.417,102.292 115.139,102.292 95.000 L 102.292 64.583 94.688 64.583 L 87.083 64.583 87.083 95.000 M266.250 94.792 L 266.250 125.000 260.729 125.000 L 255.208 125.000 255.208 142.917 L 255.208 160.833 267.604 160.833 L 280.000 160.833 280.000 156.458 L 280.000 152.083 272.181 152.083 L 264.362 152.083 264.421 149.531 L 264.479 146.979 271.619 146.924 L 278.759 146.870 278.703 142.966 L 278.646 139.063 271.510 139.008 L 264.375 138.953 264.375 136.354 L 264.375 133.755 272.135 133.700 L 279.896 133.646 279.952 129.531 L 280.009 125.417 280.838 125.417 L 281.667 125.417 281.667 115.729 L 281.667 106.042 283.007 106.042 C 284.339 106.042,284.352 106.047,284.934 106.886 C 285.487 107.683,286.462 109.018,286.827 109.479 C 286.917 109.594,288.205 111.375,289.688 113.438 C 291.171 115.500,292.481 117.299,292.598 117.435 C 292.716 117.572,293.047 118.019,293.333 118.430 C 293.620 118.841,294.241 119.687,294.715 120.310 C 295.188 120.934,295.915 121.940,296.331 122.545 C 296.746 123.150,297.232 123.847,297.409 124.094 L 297.731 124.542 295.643 124.556 C 287.166 124.616,281.959 130.172,283.330 137.694 C 284.138 142.133,288.669 146.072,293.775 146.774 C 298.549 147.431,301.127 149.553,299.564 151.540 C 298.742 152.585,296.230 153.120,294.375 152.646 C 292.757 152.233,292.319 152.087,291.563 151.708 C 291.104 151.478,290.285 150.899,289.742 150.421 C 288.481 149.311,288.638 149.243,285.532 152.236 C 282.419 155.235,282.454 154.954,284.895 157.243 C 289.097 161.185,295.866 162.661,300.521 160.651 C 300.750 160.552,301.453 160.252,302.083 159.984 C 307.611 157.634,310.289 152.414,308.839 146.816 C 307.632 142.160,304.871 140.177,296.890 138.234 C 293.471 137.401,292.431 136.616,292.431 134.867 C 292.431 131.305,298.401 131.227,302.053 134.743 C 302.284 134.964,302.399 134.965,302.676 134.747 C 302.862 134.600,303.110 134.408,303.226 134.321 C 303.343 134.235,304.076 133.651,304.855 133.024 C 305.635 132.397,306.690 131.585,307.199 131.219 C 307.708 130.854,308.125 130.400,308.125 130.211 C 308.125 129.756,306.452 128.102,305.010 127.132 C 304.374 126.704,303.807 126.301,303.750 126.235 C 303.693 126.170,303.271 125.964,302.813 125.777 C 302.020 125.455,302.354 125.438,309.635 125.427 C 313.846 125.421,317.292 125.360,317.292 125.290 C 317.292 125.179,315.461 122.785,314.899 122.162 C 314.782 122.033,314.125 121.198,313.438 120.307 C 312.750 119.415,311.906 118.336,311.563 117.909 C 311.219 117.482,310.563 116.638,310.104 116.035 C 309.646 115.431,309.130 114.784,308.958 114.597 C 308.786 114.410,308.366 113.885,308.024 113.431 C 307.350 112.534,307.055 112.160,306.237 111.168 C 304.560 109.133,301.251 104.807,301.256 104.656 C 301.259 104.559,301.891 104.203,302.662 103.867 C 305.497 102.627,309.583 99.166,309.583 98.005 C 309.583 97.861,309.654 97.712,309.740 97.674 C 309.980 97.567,311.044 95.249,311.492 93.854 C 312.456 90.855,312.604 89.703,312.604 85.208 C 312.604 80.933,312.481 79.955,311.622 77.396 C 311.097 75.829,309.808 73.141,309.375 72.708 C 309.318 72.651,308.949 72.190,308.556 71.684 C 305.542 67.805,300.062 65.296,293.505 64.796 C 291.978 64.680,285.221 64.584,278.490 64.584 L 266.250 64.583 266.250 94.792 M321.250 77.382 L 321.250 90.180 323.059 91.809 C 324.053 92.705,325.534 94.047,326.349 94.792 C 327.163 95.536,328.202 96.474,328.656 96.875 C 329.525 97.642,333.068 100.876,334.874 102.548 C 335.459 103.091,336.008 103.536,336.094 103.538 C 336.180 103.540,336.250 98.002,336.250 91.231 L 336.250 78.921 341.406 78.998 C 346.502 79.074,348.958 79.412,348.958 80.038 C 348.958 80.132,349.076 80.209,349.219 80.211 C 349.516 80.213,350.595 81.309,351.062 82.083 C 351.868 83.421,351.898 83.934,351.833 95.328 L 351.771 106.384 351.141 107.619 C 350.691 108.503,350.238 109.038,349.551 109.499 C 347.531 110.856,347.794 110.833,333.867 110.833 L 321.250 110.833 321.250 118.125 L 321.250 125.417 332.865 125.413 C 344.124 125.410,348.468 125.254,350.417 124.783 C 352.419 124.300,353.071 124.109,354.479 123.595 C 361.166 121.153,365.175 116.722,366.819 109.953 C 367.152 108.584,367.188 107.137,367.188 95.000 L 367.188 81.563 366.609 79.398 C 365.544 75.408,363.379 72.036,360.408 69.738 C 358.991 68.642,354.864 66.380,353.854 66.146 C 353.625 66.093,352.547 65.814,351.458 65.526 C 348.507 64.746,345.288 64.584,332.656 64.584 L 321.250 64.583 321.250 77.382 M235.625 77.998 C 238.315 78.575,240.931 79.849,241.462 80.841 C 241.573 81.048,241.788 81.342,241.941 81.494 C 242.855 82.409,242.917 83.256,242.917 95.000 C 242.917 107.642,242.936 107.469,241.355 109.073 C 239.016 111.445,233.591 112.608,229.792 111.551 C 229.161 111.376,228.494 111.197,228.308 111.154 C 226.662 110.772,224.239 108.661,223.743 107.176 C 223.529 106.536,223.468 103.818,223.466 94.873 L 223.464 83.391 224.030 82.235 C 224.499 81.276,225.426 80.243,226.563 79.410 C 228.406 78.060,232.751 77.383,235.625 77.998 M293.542 79.483 C 299.453 81.942,299.187 90.235,293.125 92.437 C 292.607 92.625,290.843 92.703,287.031 92.705 L 281.667 92.708 281.667 85.815 L 281.667 78.923 287.135 79.008 C 291.879 79.082,292.728 79.145,293.542 79.483 M155.304 125.469 C 155.250 125.612,155.229 133.604,155.259 143.229 L 155.313 160.729 159.844 160.785 L 164.375 160.841 164.375 143.025 L 164.375 125.208 159.889 125.208 C 156.493 125.208,155.379 125.272,155.304 125.469 M196.858 125.295 C 196.810 125.343,196.795 133.358,196.825 143.108 L 196.880 160.833 201.332 160.833 C 205.774 160.833,205.785 160.832,205.910 160.365 C 206.075 159.750,206.080 125.967,205.915 125.538 C 205.797 125.229,197.156 124.997,196.858 125.295 " stroke="none" fill="#748cdb" fill-rule="evenodd"></path><path id="path1" d="M109.423 81.042 C 109.423 81.443,109.466 81.607,109.519 81.406 C 109.571 81.206,109.571 80.878,109.519 80.677 C 109.466 80.477,109.423 80.641,109.423 81.042 M109.432 82.708 C 109.432 83.224,109.472 83.435,109.522 83.177 C 109.572 82.919,109.572 82.497,109.522 82.240 C 109.472 81.982,109.432 82.193,109.432 82.708 M171.667 125.000 L 170.104 125.133 171.835 125.171 C 172.945 125.195,173.520 125.134,173.438 125.000 C 173.367 124.885,173.291 124.809,173.269 124.829 C 173.247 124.850,172.526 124.927,171.667 125.000 M216.771 125.000 L 209.896 125.113 216.939 125.161 C 221.594 125.192,223.939 125.138,223.854 125.000 C 223.783 124.885,223.708 124.813,223.686 124.839 C 223.664 124.866,220.552 124.938,216.771 125.000 M141.510 125.156 C 143.315 125.191,146.268 125.191,148.073 125.156 C 149.878 125.121,148.401 125.093,144.792 125.093 C 141.182 125.093,139.706 125.121,141.510 125.156 M157.876 125.156 C 159.056 125.193,160.931 125.193,162.042 125.155 C 163.153 125.118,162.188 125.087,159.896 125.088 C 157.604 125.088,156.695 125.118,157.876 125.156 M199.334 125.156 C 200.515 125.193,202.390 125.193,203.501 125.155 C 204.612 125.118,203.646 125.087,201.354 125.088 C 199.063 125.088,198.153 125.118,199.334 125.156 M244.115 125.155 C 245.060 125.194,246.607 125.194,247.552 125.155 C 248.497 125.116,247.724 125.085,245.833 125.085 C 243.943 125.085,243.169 125.116,244.115 125.155 M142.598 147.188 C 142.598 154.406,142.624 157.329,142.656 153.683 C 142.688 150.037,142.688 144.130,142.656 140.558 C 142.624 136.985,142.598 139.969,142.598 147.188 " stroke="none" fill="#586cae" fill-rule="evenodd"></path><path id="path2" d="M134.635 63.894 C 134.836 63.946,135.164 63.946,135.365 63.894 C 135.565 63.841,135.401 63.798,135.000 63.798 C 134.599 63.798,134.435 63.841,134.635 63.894 M178.802 63.894 C 179.003 63.946,179.331 63.946,179.531 63.894 C 179.732 63.841,179.568 63.798,179.167 63.798 C 178.766 63.798,178.602 63.841,178.802 63.894 M229.219 63.894 C 229.419 63.946,229.747 63.946,229.948 63.894 C 230.148 63.841,229.984 63.798,229.583 63.798 C 229.182 63.798,229.018 63.841,229.219 63.894 M236.302 63.894 C 236.503 63.946,236.831 63.946,237.031 63.894 C 237.232 63.841,237.068 63.798,236.667 63.798 C 236.266 63.798,236.102 63.841,236.302 63.894 M102.188 95.000 C 102.188 111.822,102.258 125.542,102.344 125.489 C 102.548 125.362,102.548 64.638,102.344 64.511 C 102.258 64.458,102.188 78.178,102.188 95.000 M321.137 64.635 C 321.083 64.779,321.062 70.615,321.092 77.604 L 321.146 90.313 321.250 77.344 C 321.307 70.211,321.328 64.375,321.296 64.375 C 321.263 64.375,321.192 64.492,321.137 64.635 M266.106 69.688 C 266.107 70.375,266.146 70.631,266.193 70.257 C 266.239 69.882,266.238 69.320,266.191 69.007 C 266.143 68.694,266.105 69.000,266.106 69.688 M252.083 70.274 C 252.083 70.309,252.388 70.614,252.760 70.951 L 253.438 71.563 252.826 70.885 C 252.255 70.254,252.083 70.113,252.083 70.274 M52.344 79.113 C 53.117 79.153,54.383 79.153,55.156 79.113 C 55.930 79.073,55.297 79.040,53.750 79.040 C 52.203 79.040,51.570 79.073,52.344 79.113 M281.716 85.885 L 281.765 92.813 281.823 86.052 C 281.867 80.965,281.945 79.251,282.138 79.128 C 282.320 79.013,282.288 78.964,282.031 78.962 C 281.690 78.959,281.670 79.407,281.716 85.885 M286.726 79.113 C 287.389 79.154,288.421 79.154,289.018 79.112 C 289.615 79.070,289.073 79.036,287.813 79.036 C 286.552 79.037,286.063 79.071,286.726 79.113 M336.300 91.406 L 336.351 103.854 336.406 91.518 L 336.462 79.182 338.491 79.114 L 340.521 79.046 338.385 79.002 L 336.250 78.958 336.300 91.406 M344.115 79.105 C 344.372 79.155,344.794 79.155,345.052 79.105 C 345.310 79.056,345.099 79.015,344.583 79.015 C 344.068 79.015,343.857 79.056,344.115 79.105 M61.250 80.482 C 61.250 80.518,61.555 80.822,61.927 81.159 L 62.604 81.771 61.992 81.094 C 61.422 80.463,61.250 80.321,61.250 80.482 M266.106 82.604 C 266.107 83.292,266.146 83.548,266.193 83.173 C 266.239 82.799,266.238 82.236,266.191 81.923 C 266.143 81.610,266.105 81.917,266.106 82.604 M367.136 82.396 C 367.138 82.854,367.181 83.017,367.231 82.758 C 367.281 82.499,367.279 82.124,367.226 81.925 C 367.174 81.725,367.134 81.938,367.136 82.396 M258.223 95.000 C 258.223 102.047,258.249 104.930,258.281 101.406 C 258.313 97.883,258.313 92.117,258.281 88.594 C 258.249 85.070,258.223 87.953,258.223 95.000 M158.431 95.000 C 158.431 101.703,158.457 104.445,158.489 101.094 C 158.522 97.742,158.522 92.258,158.489 88.906 C 158.457 85.555,158.431 88.297,158.431 95.000 M312.786 85.104 C 312.787 86.365,312.821 86.853,312.863 86.190 C 312.904 85.527,312.904 84.496,312.862 83.899 C 312.820 83.301,312.786 83.844,312.786 85.104 M242.806 95.000 C 242.806 101.359,242.832 103.961,242.864 100.781 C 242.897 97.602,242.897 92.398,242.864 89.219 C 242.832 86.039,242.806 88.641,242.806 95.000 M125.417 83.815 C 125.417 83.851,125.721 84.156,126.094 84.492 L 126.771 85.104 126.159 84.427 C 125.589 83.796,125.417 83.654,125.417 83.815 M173.847 95.000 C 173.847 101.245,173.874 103.799,173.906 100.677 C 173.939 97.555,173.939 92.445,173.906 89.323 C 173.874 86.201,173.847 88.755,173.847 95.000 M79.056 95.208 C 79.056 101.453,79.082 104.008,79.114 100.885 C 79.147 97.763,79.147 92.654,79.114 89.531 C 79.082 86.409,79.056 88.964,79.056 95.208 M297.765 85.833 C 297.765 86.349,297.806 86.560,297.855 86.302 C 297.905 86.044,297.905 85.622,297.855 85.365 C 297.806 85.107,297.765 85.318,297.765 85.833 M266.090 95.000 C 266.090 95.401,266.133 95.565,266.185 95.365 C 266.238 95.164,266.238 94.836,266.185 94.635 C 266.133 94.435,266.090 94.599,266.090 95.000 M37.708 94.649 C 37.708 94.684,38.013 94.989,38.385 95.326 L 39.063 95.938 38.451 95.260 C 37.880 94.629,37.708 94.488,37.708 94.649 M327.708 96.107 C 327.708 96.143,328.013 96.447,328.385 96.784 L 329.063 97.396 328.451 96.719 C 327.880 96.088,327.708 95.946,327.708 96.107 M44.583 100.899 C 44.583 100.934,44.888 101.239,45.260 101.576 L 45.938 102.188 45.326 101.510 C 44.755 100.879,44.583 100.738,44.583 100.899 M334.583 102.357 C 334.583 102.393,334.888 102.697,335.260 103.034 L 335.938 103.646 335.326 102.969 C 334.755 102.338,334.583 102.196,334.583 102.357 M281.619 115.814 C 281.588 121.188,281.633 125.542,281.719 125.489 C 281.805 125.436,281.875 121.077,281.875 115.803 L 281.875 106.214 283.210 106.284 C 283.944 106.323,284.501 106.284,284.448 106.198 C 284.394 106.112,283.748 106.042,283.013 106.042 L 281.675 106.042 281.619 115.814 M266.106 107.396 C 266.107 108.083,266.146 108.339,266.193 107.965 C 266.239 107.591,266.238 107.028,266.191 106.715 C 266.143 106.402,266.105 106.708,266.106 107.396 M367.132 107.708 C 367.132 108.109,367.175 108.273,367.227 108.073 C 367.279 107.872,367.279 107.544,367.227 107.344 C 367.175 107.143,367.132 107.307,367.132 107.708 M175.000 108.815 C 175.000 108.851,175.305 109.156,175.677 109.492 L 176.354 110.104 175.742 109.427 C 175.172 108.796,175.000 108.654,175.000 108.815 M114.056 110.260 L 112.813 111.563 114.115 110.319 C 114.831 109.635,115.417 109.049,115.417 109.017 C 115.417 108.863,115.211 109.051,114.056 110.260 M321.087 118.061 C 321.062 122.093,321.112 125.436,321.198 125.489 C 321.340 125.577,321.337 119.916,321.190 113.333 C 321.158 111.901,321.112 114.028,321.087 118.061 M180.885 111.810 C 181.086 111.863,181.414 111.863,181.615 111.810 C 181.815 111.758,181.651 111.715,181.250 111.715 C 180.849 111.715,180.685 111.758,180.885 111.810 M182.760 111.810 C 182.961 111.863,183.289 111.863,183.490 111.810 C 183.690 111.758,183.526 111.715,183.125 111.715 C 182.724 111.715,182.560 111.758,182.760 111.810 M109.518 114.543 C 108.868 115.221,108.828 115.466,109.304 115.860 C 109.620 116.121,109.625 116.106,109.363 115.684 C 109.102 115.265,109.131 115.164,109.681 114.590 C 110.014 114.243,110.239 113.958,110.182 113.958 C 110.125 113.958,109.826 114.221,109.518 114.543 M148.021 119.524 C 147.333 120.169,147.052 120.501,147.396 120.262 C 147.995 119.846,149.556 118.323,149.364 118.343 C 149.313 118.348,148.708 118.880,148.021 119.524 M266.106 120.313 C 266.107 121.000,266.146 121.256,266.193 120.882 C 266.239 120.507,266.238 119.945,266.191 119.632 C 266.143 119.319,266.105 119.625,266.106 120.313 M255.099 142.917 C 255.099 152.484,255.125 156.398,255.156 151.615 C 255.187 146.831,255.187 139.003,255.156 134.219 C 255.125 129.435,255.099 133.349,255.099 142.917 M184.844 126.185 C 185.044 126.238,185.372 126.238,185.573 126.185 C 185.773 126.133,185.609 126.090,185.208 126.090 C 184.807 126.090,184.643 126.133,184.844 126.185 " stroke="none" fill="#4c588c" fill-rule="evenodd"></path><path id="path3" d="M196.766 143.021 C 196.766 152.646,196.792 156.553,196.823 151.703 C 196.854 146.853,196.854 138.978,196.823 134.203 C 196.792 129.428,196.766 133.396,196.766 143.021 M282.969 135.104 C 282.972 135.563,283.014 135.725,283.064 135.466 C 283.114 135.207,283.112 134.832,283.060 134.633 C 283.008 134.434,282.967 134.646,282.969 135.104 M268.476 152.031 C 270.445 152.065,273.727 152.065,275.768 152.031 C 277.809 151.997,276.198 151.969,272.188 151.969 C 268.177 151.969,266.507 151.997,268.476 152.031 " stroke="none" fill="#5c8ccc" fill-rule="evenodd"></path><path id="path4" d="M92.389 137.708 C 92.389 144.411,92.416 147.154,92.448 143.802 C 92.480 140.451,92.480 134.966,92.448 131.615 C 92.416 128.263,92.389 131.005,92.389 137.708 " stroke="none" fill="#6474bc" fill-rule="evenodd"></path></g></svg>