<?xml version="1.0" standalone="no"?>
<!DOCTYPE svg PUBLIC "-//W3C//DTD SVG 20010904//EN"
 "http://www.w3.org/TR/2001/REC-SVG-20010904/DTD/svg10.dtd">
<svg version="1.0" xmlns="http://www.w3.org/2000/svg"
 width="3840.000000pt" height="2160.000000pt" viewBox="0 0 3840.000000 2160.000000"
 preserveAspectRatio="xMidYMid meet">
<metadata>
Created by potrace 1.16, written by Peter Selinger 2001-2019
</metadata>
<g transform="translate(0.000000,2160.000000) scale(0.100000,-0.100000)"
fill="#000000" stroke="none">
<path d="M8573 16023 c-10 -4 -13 -679 -13 -3330 l0 -3324 23 3 22 3 0 3322
c0 2206 -3 3324 -10 3326 -5 2 -16 2 -22 0z"/>
<path d="M34040 13116 c0 -1308 0 -1335 -19 -1348 -27 -19 -11 -40 25 -36 l29
3 0 1348 c0 1190 2 1347 15 1348 17 0 -17 17 -37 18 -10 1 -13 -272 -13 -1333z"/>
<path d="M28100 13695 c0 -590 3 -745 13 -744 6 1 23 5 37 9 l25 8 -27 1 -28
1 0 183 c0 100 -1 428 -3 730 -1 357 1 548 8 551 6 3 2 5 -7 5 -17 1 -18 -41
-18 -744z"/>
<path d="M25536 14038 c-8 -30 -8 -2627 0 -2667 5 -25 9 -29 20 -20 21 17 21
2681 0 2698 -11 9 -15 7 -20 -11z"/>
<path d="M14670 13990 c0 -6 -4 -8 -10 -5 -6 4 -10 -444 -10 -1285 1 -832 4
-1289 10 -1285 6 3 10 1 10 -5 0 -6 5 -8 10 -5 7 4 10 447 10 1295 0 848 -3
1291 -10 1295 -5 3 -10 1 -10 -5z"/>
<path d="M31479 13943 c-1 -32 -3 -69 -5 -83 -2 -14 -1 -87 3 -162 4 -106 9
-138 19 -138 21 0 23 29 21 240 -2 177 -4 195 -19 198 -15 3 -18 -5 -19 -55z"/>
<path d="M23840 12706 c0 -690 4 -1257 8 -1260 4 -2 12 -2 17 2 14 10 13 2495
0 2504 -5 4 -13 8 -17 8 -5 0 -8 -564 -8 -1254z"/>
<path d="M16380 13940 c0 -5 -6 -10 -14 -10 -8 0 -17 -7 -20 -16 -9 -23 -7
-2417 2 -2430 4 -6 14 -13 24 -17 15 -5 16 83 16 1239 0 684 -2 1244 -4 1244
-2 0 -4 -4 -4 -10z"/>
<path d="M35725 12715 c0 -566 1 -797 2 -512 2 285 2 749 0 1030 -1 282 -2 49
-2 -518z"/>
<path d="M28107 11493 c-4 -3 -7 -480 -7 -1060 0 -996 -1 -1053 -17 -1054 -12
0 -13 -2 -5 -6 7 -3 19 1 27 7 13 11 15 153 14 1044 l0 1031 133 3 c116 2 134
0 145 -15 12 -16 13 -15 13 4 0 44 -27 53 -167 53 -71 0 -133 -3 -136 -7z"/>
<path d="M32387 10968 c-8 -37 -3 -1586 6 -1594 9 -10 8 -92 9 811 0 577 3
792 12 797 7 5 5 8 -5 8 -9 0 -19 -10 -22 -22z"/>
<path d="M10620 9375 c-3 -375 1 -2670 5 -2673 3 -3 5 598 5 1336 0 738 -2
1342 -5 1342 -3 0 -5 -2 -5 -5z"/>
<path d="M7485 8050 c0 -729 1 -1027 2 -662 2 364 2 960 0 1325 -1 364 -2 66
-2 -663z"/>
<path d="M14315 7480 c0 -1042 1 -1469 2 -948 2 522 2 1374 0 1895 -1 522 -2
95 -2 -947z"/>
<path d="M11935 7000 c0 -784 1 -1104 2 -712 2 391 2 1033 0 1425 -1 391 -2
71 -2 -713z"/>
<path d="M12965 7010 c0 -778 1 -1097 2 -707 2 389 2 1025 0 1415 -1 389 -2
70 -2 -708z"/>
</g>
</svg>
